<svg width="598" height="133" viewBox="0 0 598 133" fill="none" xmlns="http://www.w3.org/2000/svg">
<path d="M65.84 102.4C72.88 102.4 78.8533 100.96 83.76 98.08C88.6667 95.2 92.4 91.04 94.96 85.6C97.52 80.16 98.8 73.7067 98.8 66.24C98.8 58.6667 97.4667 52.2133 94.8 46.88C92.1333 41.5467 88.3467 37.44 83.44 34.56C78.64 31.68 72.8267 30.24 66 30.24C55.44 30.24 47.28 33.3867 41.52 39.68C35.76 45.8667 32.88 54.72 32.88 66.24C32.88 77.6533 35.7067 86.56 41.36 92.96C47.12 99.2533 55.28 102.4 65.84 102.4ZM65.84 93.76C58.6933 93.76 53.36 91.2 49.84 86.08C46.32 80.96 44.56 74.3467 44.56 66.24C44.56 58.24 46.2667 51.68 49.68 46.56C53.2 41.44 58.64 38.88 66 38.88C73.36 38.88 78.7467 41.44 82.16 46.56C85.5733 51.68 87.28 58.24 87.28 66.24C87.28 75.0933 85.36 81.92 81.52 86.72C77.68 91.4133 72.4533 93.76 65.84 93.76ZM66 132.8C56.9333 132.8 48.4 131.093 40.4 127.68C32.4 124.267 25.36 119.573 19.28 113.6C13.3067 107.52 8.61333 100.48 5.2 92.48C1.78667 84.48 0.0800011 75.9467 0.0800011 66.88C0.0800011 57.8133 1.78667 49.3333 5.2 41.44C8.61333 33.44 13.3067 26.4 19.28 20.32C25.36 14.24 32.4 9.49333 40.4 6.07999C48.4 2.66666 56.9333 0.959991 66 0.959991C75.1733 0.959991 83.7067 2.66666 91.6 6.07999C99.6 9.49333 106.587 14.24 112.56 20.32C118.64 26.4 123.387 33.44 126.8 41.44C130.213 49.3333 131.92 57.8133 131.92 66.88C131.92 75.9467 130.213 84.48 126.8 92.48C123.387 100.48 118.64 107.52 112.56 113.6C106.587 119.573 99.6 124.267 91.6 127.68C83.7067 131.093 75.1733 132.8 66 132.8ZM222.32 12L199.6 124H169.52L146.8 12H169.84L178.64 63.84L184.08 97.44H185.04L190.48 63.84L199.28 12H222.32ZM230.868 124V12H288.308V31.2H252.788V57.92H284.468V76.48H252.788V105.44H288.948V124H230.868ZM301.336 12H343.896C350.616 14.24 356.323 18.4 361.016 24.48C365.816 30.4533 368.216 37.8133 368.216 46.56C368.216 60.8533 362.563 71.36 351.256 78.08L367.416 124H345.016L331.416 83.2H322.936V124H301.336V12ZM322.936 31.2V65.28H336.696C338.51 64.8533 340.483 63.04 342.616 59.84C344.856 56.5333 345.976 52.6933 345.976 48.32C345.976 43.9467 345.016 40.1067 343.096 36.8C341.283 33.4933 339.47 31.6267 337.656 31.2H322.936ZM446.851 12L424.131 124H394.051L371.331 12H394.371L403.171 63.84L408.611 97.44H409.571L415.011 63.84L423.811 12H446.851ZM483.079 105.44H496.519C498.865 102.88 500.519 100.32 501.479 97.76C502.545 95.0933 503.079 91.2 503.079 86.08V12H524.999V78.08C524.999 83.52 524.839 87.7867 524.519 90.88C524.305 93.8667 523.665 97.5467 522.599 101.92C520.785 109.707 515.772 117.067 507.559 124H472.039C463.825 117.28 458.812 109.92 456.999 101.92C455.399 95.4133 454.599 87.4667 454.599 78.08V12H476.519V86.08C476.519 91.2 476.999 95.0933 477.959 97.76C479.025 100.32 480.732 102.88 483.079 105.44ZM539.618 124V12H597.058V31.2H561.538V57.92H593.218V76.48H561.538V105.44H597.698V124H539.618Z" fill="black"/>
</svg>
