<?xml version="1.0" standalone="no"?>
<!DOCTYPE svg PUBLIC "-//W3C//DTD SVG 20010904//EN"
 "http://www.w3.org/TR/2001/REC-SVG-20010904/DTD/svg10.dtd">
<svg version="1.0" xmlns="http://www.w3.org/2000/svg"
 width="375.000000pt" height="319.000000pt" viewBox="0 0 375.000000 319.000000"
 preserveAspectRatio="xMidYMid meet">

<g transform="translate(0.000000,319.000000) scale(0.100000,-0.100000)"
fill="#000000" stroke="none">
<path fill="#FFFFFF" d="M1854 2646 c-10 -7 -136 -81 -279 -163 -664 -382 -845 -488 -845
-493 0 -3 39 -27 87 -55 l86 -49 51 28 c28 16 245 140 482 277 238 137 436
249 441 249 6 0 120 -64 254 -141 542 -314 710 -409 719 -409 12 0 169 90 174
99 3 5 -746 441 -1094 638 -49 28 -59 31 -76 19z"/>
<path fill="#FFFFFF" d="M1730 2142 c-74 -43 -243 -141 -375 -216 -132 -76 -244 -142 -248
-146 -5 -4 32 -31 82 -59 l90 -52 297 171 c249 144 301 170 318 162 12 -5 147
-82 300 -171 154 -89 283 -160 286 -159 21 10 179 102 177 104 -14 13 -771
444 -780 444 -7 0 -73 -36 -147 -78z"/>
<path fill="#FFFFFF" d="M1673 1677 c-106 -61 -193 -115 -193 -118 0 -8 365 -219 390 -226 16
-4 410 214 410 227 0 3 -44 30 -98 60 -53 30 -141 80 -195 112 -54 32 -104 58
-110 58 -7 0 -99 -51 -204 -113z"/>
</g>
</svg>
